<svg width="56" height="56" viewBox="0 0 56 56" fill="none" xmlns="http://www.w3.org/2000/svg">
<path d="M25.9415 0.0839299C15.0222 0.987282 5.78079 7.82134 1.82206 17.9546C0.550551 21.2407 0 24.2388 0 28.0093C0 31.7798 0.550551 34.7779 1.82206 38.064C7.49799 52.5831 23.831 59.7444 38.2633 54.0363C45.3943 51.2215 51.2144 45.4086 54.0327 38.2866C59.3023 25.0112 53.6657 9.91607 40.9505 3.22602C36.3888 0.830177 30.8833 -0.335016 25.9415 0.0839299ZM30.9751 5.96226C34.5143 6.47285 37.4113 7.58568 40.3082 9.5364C50.6114 16.449 53.3379 30.1302 46.4692 40.342C41.0292 48.4198 31.1062 52.0725 21.8385 49.4017C15.5072 47.5819 10.1328 42.8295 7.49799 36.7155C6.35756 34.0578 5.84633 31.8191 5.72836 28.8603C5.37443 20.2981 10.0148 12.3512 17.7487 8.26647C21.7206 6.17174 26.61 5.32075 30.9751 5.96226Z" fill="white"/>
<path d="M22.7168 11.6311L22.3367 12.0108V13.7258V15.4409H19.9641C18.6008 15.4409 17.4997 15.4932 17.3424 15.5718C16.687 15.9253 16.7001 15.6242 16.7001 27.9438C16.7001 40.198 16.7001 40.0932 17.3293 40.4336C17.4997 40.5253 18.5222 40.5776 19.9641 40.5776H22.3367V42.2927V44.0078L22.7168 44.3874C23.0445 44.7147 23.2018 44.7671 23.7786 44.7671C24.3554 44.7671 24.5127 44.7147 24.8404 44.3874L25.2205 44.0078V42.2927V40.5776H26.5969H27.9733V42.332C27.9733 44.047 27.9864 44.0863 28.3141 44.4267C28.6025 44.7016 28.786 44.7671 29.3103 44.7671C30.595 44.7671 30.8571 44.322 30.8571 42.0832V40.5776H32.1417C33.5968 40.5776 34.4488 40.3812 35.6417 39.7528C36.7035 39.1899 37.9094 37.9461 38.4338 36.8726C39.7839 34.1494 39.3907 31.2692 37.3458 28.8602L36.6117 28.0093L37.3458 27.1583C38.9581 25.2468 39.5349 23.1652 39.0499 20.9003C38.5124 18.3735 36.6641 16.3835 34.1473 15.6503C33.7016 15.5194 32.9414 15.4409 32.1417 15.4409H30.8571V13.8698C30.8571 11.6573 30.6212 11.2514 29.3103 11.2514C28.786 11.2514 28.6025 11.3169 28.3141 11.5918C27.9864 11.9322 27.9733 11.9715 27.9733 13.6865V15.4409H26.5969H25.2205V13.7258V12.0108L24.8404 11.6311C24.5127 11.3038 24.3554 11.2514 23.7786 11.2514C23.2018 11.2514 23.0445 11.3038 22.7168 11.6311ZM33.5312 18.583C34.5144 18.9626 35.3533 19.7351 35.8514 20.7432C36.2316 21.5287 36.2578 21.6727 36.2053 22.6022C36.1005 24.2518 35.2878 25.4432 33.7541 26.1633L33.02 26.5037L26.3085 26.5429L19.5839 26.5822V22.4451V18.3211H26.2037C32.535 18.3211 32.8496 18.3342 33.5312 18.583ZM33.7541 29.8552C35.2878 30.5753 36.1005 31.7667 36.2053 33.4163C36.2578 34.3458 36.2316 34.4898 35.8514 35.2753C35.3533 36.2834 34.5144 37.0559 33.5312 37.4355C32.8496 37.6843 32.535 37.6974 26.2037 37.6974H19.5839V33.5734V29.4363L26.3085 29.4756L33.02 29.5148L33.7541 29.8552Z" fill="white"/>
</svg>
