<svg width="77" height="60" viewBox="0 0 77 60" fill="none" xmlns="http://www.w3.org/2000/svg">
<path d="M48.4721 0.234834C46.9832 0.766072 45.9004 1.76783 45.3439 3.10352C45.1484 3.57404 45.0882 3.6044 44.3212 3.6044C42.3962 3.6044 40.7268 4.25706 39.5237 5.47132C38.5762 6.42754 38.3656 6.88289 36.621 11.6337C35.0269 15.9746 34.681 16.5818 33.4628 17.3407C32.7709 17.7808 32.6506 17.796 30.7256 17.8416L28.7253 17.9023V18.9647V20.0272L30.876 19.9665C32.9063 19.921 33.0567 19.8906 34.0192 19.4353C35.3878 18.7826 36.4255 17.7201 37.0572 16.3086C37.3429 15.7166 38.1551 13.5765 38.892 11.5881C39.7342 9.25069 40.3659 7.74805 40.6667 7.35342C41.3885 6.41237 42.5165 5.85077 43.84 5.7597L44.9228 5.69899L45.1033 6.42754C45.4793 7.91501 46.3816 9.0382 47.8254 9.78193C48.5473 10.1462 48.818 10.2069 50.0061 10.2069C51.2394 10.2069 51.465 10.1614 52.3673 9.70604C53.4953 9.14444 54.2322 8.37036 54.7736 7.1561C55.285 6.03291 55.2549 4.13563 54.7135 2.98209C53.9014 1.20624 52.3222 0.143765 50.337 0.0223395C49.5249 -0.0383733 49.0587 0.0223395 48.4721 0.234834ZM51.4499 2.43568C53.6457 3.6044 53.6156 6.73111 51.3898 7.86947C50.4724 8.35518 49.0887 8.23375 48.3217 7.61145C47.4946 6.92843 47.0734 6.12398 47.0734 5.15257C47.0734 2.83031 49.4346 1.3732 51.4499 2.43568Z" fill="white"/>
<path d="M23.3713 2.95171C22.4238 2.99725 22.0929 3.07314 21.8974 3.28563C21.7621 3.43741 21.3861 4.33293 21.0702 5.28916L20.4987 7.00429L18.8143 7.65696C17.8668 8.00606 16.5434 8.61318 15.8666 8.97746L14.6183 9.6453L13.0091 8.90157C11.4901 8.20337 10.6479 8.00606 10.302 8.27926C10.2268 8.33998 8.91838 9.66048 7.41444 11.2087C4.99309 13.6827 4.66222 14.0773 4.66222 14.5023C4.66222 14.7907 5.00813 15.6711 5.48939 16.6576L6.31656 18.3121L5.65483 19.6477C5.09837 20.7709 4.60207 22.1218 4.07569 23.928C3.98545 24.2316 3.65458 24.4137 2.16568 24.9905C1.17308 25.3699 0.285749 25.7494 0.180473 25.8101C0.0451183 25.9012 0 26.994 0 30.1511C0 34.0215 0.0300789 34.4161 0.27071 34.7197C0.451183 34.9322 1.20315 35.2965 2.33111 35.6911L4.1208 36.3286L4.54191 37.5429C4.7675 38.1955 5.339 39.5464 5.82026 40.5178L6.66247 42.2936L5.88042 44.0695C5.21868 45.5114 5.09837 45.906 5.20364 46.24C5.27884 46.4676 6.60231 47.8944 8.22657 49.4881C10.4674 51.7041 11.1893 52.3264 11.4901 52.3264C11.7157 52.3264 12.6331 51.947 13.5656 51.4765L15.2349 50.6265L16.8291 51.3854C17.7014 51.8104 19.0399 52.3416 19.7769 52.5693C20.5288 52.797 21.1454 52.9943 21.1755 53.0095C21.2056 53.0398 21.5214 53.8594 21.8974 54.846C22.2734 55.8478 22.6795 56.7433 22.8148 56.8344C22.9953 56.971 23.7172 57.0317 25.1459 57.0317C27.0259 57.0317 27.2515 57.0013 27.5222 56.7281C27.9132 56.3335 27.9132 55.6049 27.5222 55.2103C27.2665 54.9523 27.0259 54.9067 25.6873 54.9067H24.1383L23.5518 53.2675C22.9652 51.5979 22.514 50.9604 21.9275 50.9604C21.3259 50.9604 18.4083 49.8676 17.0096 49.1238C16.2275 48.714 15.4605 48.3801 15.2801 48.3953C15.0996 48.3953 14.2574 48.7596 13.3851 49.1997L11.806 50.0042L9.6102 47.8792L7.41444 45.7391L8.13633 44.1302C8.5424 43.2499 8.87326 42.3543 8.87326 42.1267C8.87326 41.899 8.67775 41.3678 8.42208 40.9731C7.71523 39.8044 6.84294 37.8161 6.31656 36.2072L5.85034 34.7349L4.66222 34.2795C4.01553 34.0367 3.2034 33.7483 2.85749 33.6421C2.51159 33.5358 2.19576 33.3688 2.18072 33.293C2.15064 33.2019 2.09048 31.8207 2.0604 30.2118L1.98521 27.3127L3.6997 26.6601C4.63215 26.311 5.50443 25.9163 5.62475 25.7797C5.74506 25.6431 5.95562 25.0967 6.09097 24.5655C6.482 23.0325 7.14373 21.3022 7.8957 19.8906C8.27169 19.1772 8.57248 18.5094 8.57248 18.4031C8.57248 18.2969 8.19649 17.4317 7.74531 16.4907L6.91814 14.7604L8.99358 12.6354C10.1215 11.4819 11.069 10.4953 11.0841 10.4649C11.0991 10.4194 11.9413 10.7533 12.9339 11.1935L14.7537 11.9827L15.3101 11.6792C17.927 10.298 19.07 9.76673 20.3484 9.35692C21.1605 9.09889 21.9125 8.78014 22.0328 8.6739C22.138 8.55247 22.499 7.67213 22.8148 6.71591L23.3713 4.97041H25.2963C27.0259 4.97041 27.2515 4.94006 27.5222 4.66685C27.8229 4.36328 27.9132 3.68027 27.7026 3.36152C27.3718 2.84546 26.9206 2.81511 23.3713 2.95171Z" fill="white"/>
<path d="M57.195 11.3149C55.6459 11.8765 54.5481 12.9542 54.0217 14.4113L53.781 15.1247L49.179 15.1702C43.9001 15.2461 43.6896 15.2765 42.336 16.5362C41.2833 17.5076 40.787 18.5246 40.6065 20.1183C40.4561 21.4692 40.2455 21.9852 39.6139 22.6379C38.6814 23.5638 38.7115 23.5638 33.5079 23.6093L28.7253 23.6548V24.6414V25.628L33.8839 25.5825L39.0274 25.5369L39.7793 25.1271C41.3885 24.2771 42.4413 22.6379 42.6368 20.7558C42.7722 19.3594 42.9376 18.9192 43.5843 18.2817C44.5919 17.2952 44.7724 17.2648 49.5098 17.2648H53.766L54.0367 18.0237C54.4127 19.0862 55.1496 19.9969 56.0971 20.5736C57.195 21.2415 57.9169 21.4084 59.2103 21.3326C60.5939 21.2415 61.7068 20.6951 62.6242 19.6781C63.6018 18.5853 63.9627 17.5076 63.8875 15.9746C63.8123 14.5327 63.4514 13.622 62.5791 12.681C61.3008 11.2694 58.9546 10.6775 57.195 11.3149ZM60.1427 13.4702C60.4736 13.6372 60.9398 14.0167 61.1955 14.3202C62.7897 16.2782 61.3308 19.238 58.7741 19.238C57.7665 19.238 56.9544 18.7826 56.3227 17.9023C55.9317 17.3255 55.8715 17.113 55.8715 16.2023C55.8715 15.2916 55.9317 15.0791 56.3227 14.5175C57.195 13.2729 58.8644 12.8024 60.1427 13.4702Z" fill="white"/>
<path d="M25.3415 16.0657C21.5214 16.4755 17.6864 18.7978 15.5207 22.0004C14.7838 23.0932 13.8814 25.0967 13.5054 26.4476C13.0392 28.1931 13.0392 31.6841 13.5054 33.4296C13.9115 34.9322 14.8439 36.9054 15.7012 38.1196C16.4682 39.1973 18.1075 40.8214 19.1452 41.5347C20.9499 42.7793 23.5367 43.6749 25.943 43.9025C26.8905 43.9936 27.0409 43.9632 27.4169 43.6749C27.6876 43.4472 27.823 43.2043 27.823 42.9008C27.823 42.1419 27.4319 41.9142 25.9731 41.8079C24.3789 41.6713 22.2584 41.0187 20.9048 40.2294C19.7017 39.516 17.4006 37.2241 16.7088 36.0554C13.8664 31.1377 14.7236 25.1574 18.8294 21.2718C20.0025 20.179 21.2357 19.3897 22.6494 18.8433C23.7924 18.4031 25.5821 18.0389 26.5897 18.0237C27.3417 18.0237 27.823 17.629 27.823 16.9916C27.823 16.1112 27.1763 15.8684 25.3415 16.0657Z" fill="white"/>
<path d="M70.8358 24.9146C69.798 25.1271 68.7754 25.7191 68.1287 26.4628C67.6474 27.0244 66.9255 28.3905 66.9255 28.7547C66.9255 28.9065 63.0002 28.952 47.8254 28.952H28.7253V29.9386V30.9252H47.8254C63.0002 30.9252 66.9255 30.9707 66.9255 31.1074C66.9255 31.5931 67.8429 33.1868 68.4294 33.718C69.4822 34.6742 70.55 35.084 71.9788 35.084C73.0616 35.084 73.3173 35.0233 74.1895 34.5983C75.3927 33.9912 76.265 33.0502 76.7162 31.8511C77.1523 30.6672 77.0771 28.7547 76.5507 27.6619C75.5431 25.5673 73.1368 24.4138 70.8358 24.9146ZM73.0917 27.1458C73.9489 27.5405 74.2497 27.8137 74.6407 28.5726C75.889 30.9859 73.3323 33.8546 70.8658 32.8073C68.7453 31.927 68.249 29.2556 69.9033 27.6923C70.7906 26.8423 71.9788 26.6298 73.0917 27.1458Z" fill="white"/>
<path d="M28.7253 35.2509V36.2375H33.1319C38.1851 36.2375 38.6814 36.3134 39.5688 37.2545C40.3207 38.0437 40.4561 38.3473 40.6065 39.7285C40.6817 40.3964 40.8772 41.2463 41.0426 41.6258C41.4637 42.582 42.6067 43.7507 43.5993 44.2364L44.4416 44.6614L49.1038 44.707L53.781 44.7525L54.0367 45.4962C54.5631 46.9837 55.9618 48.2739 57.5259 48.6988C58.3831 48.9417 60.0976 48.7899 60.9398 48.4256C61.9174 47.9703 62.9401 46.9837 63.4213 45.9668C63.7973 45.223 63.8424 44.9498 63.8424 43.6749C63.8424 42.3999 63.7973 42.1267 63.4213 41.3678C62.6543 39.7892 61.0601 38.7116 59.2704 38.5598C56.9243 38.3625 54.7887 39.7133 54.0217 41.8838L53.766 42.6124H49.4798C45.1785 42.6124 45.1785 42.6124 44.4115 42.2329C43.2986 41.6713 42.9075 41.0035 42.6368 39.2276C42.3661 37.4366 41.93 36.5107 40.9073 35.5849C39.5086 34.3099 39.2229 34.2644 33.6132 34.2644H28.7253V35.2509ZM60.1427 40.9428C60.4736 41.1097 60.9398 41.4892 61.1955 41.7928C62.7897 43.7507 61.3308 46.7105 58.7741 46.7105C57.7665 46.7105 56.9544 46.2551 56.3227 45.3748C55.9317 44.798 55.8715 44.5855 55.8715 43.6749C55.8715 42.7642 55.9317 42.5517 56.3227 41.9901C57.195 40.7455 58.8644 40.2749 60.1427 40.9428Z" fill="white"/>
<path d="M28.7253 40.9427V42.0052H30.4398C32.3649 42.0052 33.0868 42.1873 34.0042 42.9311C34.8464 43.5989 35.1472 44.2212 36.6962 48.4559C37.4482 50.5354 38.2453 52.5692 38.4408 52.979C39.4485 54.9826 41.7044 56.2727 44.1708 56.2727H45.1033L45.4041 56.9406C45.8101 57.8968 46.7727 58.8682 47.7803 59.3994C48.5624 59.7941 48.803 59.8396 50.0813 59.8396C51.4198 59.8396 51.5702 59.8092 52.4576 59.3235C53.5705 58.7164 54.1871 58.0486 54.7285 56.8798C55.0594 56.1817 55.1195 55.8326 55.1195 54.7549C55.1195 53.6772 55.0594 53.3281 54.7285 52.6299C54.1871 51.4612 53.5554 50.7934 52.4576 50.2014C49.6151 48.6684 46.0056 50.1863 45.1634 53.2674L44.9228 54.1478H44.0656C43.5993 54.1478 42.9827 54.0719 42.697 53.9656C41.9149 53.7076 40.9374 52.979 40.5313 52.3567C40.3207 52.038 39.4936 49.9738 38.6814 47.7729C36.7113 42.4605 36.5609 42.157 35.0569 41.0793C33.8237 40.1838 32.6657 39.8802 30.515 39.8802H28.7253V40.9427ZM51.3597 52.0076C53.6006 53.0246 53.6457 56.3183 51.4349 57.4414C49.4046 58.4887 47.0734 57.0468 47.0734 54.7549C47.0734 52.5085 49.3294 51.0666 51.3597 52.0076Z" fill="white"/>
</svg>
