<svg width="77" height="77" fill="none" xmlns="http://www.w3.org/2000/svg"><path d="M33.493.229c-2.118.288-3.898.657-5.872 1.235-1.957.562-5.117 1.797-5.518 2.166-.401.353-.37 1.348.048 1.877.417.546 1.09.546 2.262.032 7.492-3.32 16.94-3.77 24.946-1.203 5.711 1.829 10.636 4.91 14.903 9.322 5.39 5.583 8.743 12.498 9.77 20.231.385 2.824.273 8.054-.208 10.702-.947 5.086-2.712 9.466-5.535 13.653-1.893 2.792-1.941 2.888-1.813 3.434.08.289.77 1.123 1.749 2.118l1.62 1.652h-9.529v-9.53l1.572 1.54c.866.85 1.765 1.605 1.99 1.653.914.224 1.876-.738 1.652-1.653-.064-.273-1.204-1.54-2.936-3.289-2.791-2.775-2.856-2.84-3.53-2.84-.465 0-.77.097-.994.321-.305.305-.32.53-.32 8.022 0 7.493.015 7.718.32 8.022.305.305.53.321 8.021.321 7.492 0 7.717-.016 8.021-.32.225-.225.321-.53.321-.995 0-.642-.08-.738-2.39-3.08l-2.39-2.423.69-.963c1.074-1.508 2.71-4.477 3.577-6.498 2.15-5.022 3.08-9.61 3.08-15.242 0-4.685-.513-7.958-1.941-12.226C70.39 12.214 58.182 2.17 43.423.228c-2.326-.304-7.716-.304-9.93 0Z" fill="#fff"/><path d="M34.263 5.299c-3.577.465-8.887 2.07-9.914 2.984-.433.4-.385 1.412.112 1.893.53.546.899.513 2.743-.225 5.824-2.326 12.61-2.76 18.834-1.219 2.118.53 3.61 1.075 5.856 2.166 9.16 4.428 15.529 13.14 17.005 23.28.32 2.23.32 6.418-.016 8.632-.45 3.064-1.268 5.872-2.551 8.632-.69 1.492-.722 2.15-.145 2.599.482.369 1.316.433 1.717.128.401-.289 1.652-3.048 2.358-5.214 1.155-3.546 1.604-6.434 1.604-10.461 0-5.487-1.01-9.931-3.352-14.712-1.749-3.53-3.45-5.937-6.24-8.76-5.343-5.424-12.193-8.793-19.765-9.74-1.588-.192-6.658-.176-8.246.017ZM2.996 9.165c-.465.37-.625 1.043-.369 1.62.129.29 1.236 1.509 2.455 2.728l2.246 2.214-.995 1.492C3.478 21.487 1.408 26.701.478 31.916.028 34.419-.148 40.13.14 42.68c1.716 15.034 11.871 27.645 26.085 32.362C30.54 76.487 33.798 77 38.498 77c3.321 0 5.743-.257 8.631-.898 3.048-.674 7.251-2.199 7.78-2.824.642-.754.08-2.214-.882-2.214-.256 0-1.283.32-2.262.706-4.444 1.78-8.326 2.502-13.299 2.502-9.433.016-18.032-3.465-24.801-10.011-6.097-5.904-9.738-13.22-10.78-21.676-.242-1.877-.242-6.321 0-8.263.705-5.84 2.774-11.279 6.16-16.172 1.475-2.15 1.572-2.326 1.443-2.872-.064-.257-.786-1.14-1.716-2.102l-1.62-1.636h9.528v9.53l-1.572-1.54c-.866-.85-1.748-1.589-1.973-1.653-.946-.24-1.86.626-1.684 1.573.08.4.722 1.139 2.871 3.273 1.508 1.524 2.952 2.84 3.193 2.92.53.192 1.347-.049 1.572-.466.096-.192.16-3.257.16-7.925 0-7.429-.016-7.654-.32-7.958-.305-.305-.53-.321-7.99-.321-5.887 0-7.732.048-7.94.192Z" fill="#fff"/><path d="M34.792 18.214c-2.534.45-5.374 1.573-7.475 2.936-1.428.915-1.653 1.188-1.653 1.942 0 1.428 1.22 1.7 2.808.625 3.08-2.07 6.304-3.064 10.026-3.048 3.064 0 5.615.61 8.262 1.99 8.535 4.444 12 14.985 7.797 23.616-2.294 4.685-6.401 8.087-11.503 9.499-1.476.417-1.813.449-4.556.449-2.743 0-3.08-.032-4.572-.45-6.224-1.716-10.973-6.465-12.706-12.723-.417-1.475-.449-1.813-.449-4.556 0-2.744.032-3.08.45-4.557.513-1.845 1.508-4.01 2.582-5.631.85-1.268.93-1.83.337-2.407-.577-.593-1.412-.545-2.037.113-1.235 1.331-3 4.99-3.674 7.669-.481 1.941-.61 6.225-.24 8.343.48 2.775 1.62 5.6 3.256 8.086.963 1.444 3.963 4.444 5.422 5.423 2.455 1.62 5.326 2.776 8.006 3.257 1.845.32 5.358.32 7.235-.016 6.304-1.091 11.935-5.295 14.823-11.07 1.46-2.905 2.117-5.777 2.117-9.21 0-4.316-1.106-7.974-3.497-11.616-1.01-1.54-3.994-4.492-5.583-5.535-2.438-1.589-5.117-2.664-7.892-3.145-1.7-.305-5.615-.289-7.284.016Z" fill="#fff"/><path d="M9.173 22.803c-.482.24-1.476 2.358-2.375 5.022C3.975 36.28 4.633 45.569 8.58 53.447c1.668 3.305 3.481 5.824 6.144 8.52 2.84 2.888 5.6 4.861 9.209 6.61 4.716 2.294 9.144 3.289 14.566 3.289 4.027 0 6.818-.433 10.444-1.605 2.583-.834 3.706-1.395 3.898-1.94.177-.498.032-1.156-.32-1.493-.514-.53-.98-.481-2.92.273a31.737 31.737 0 0 1-6.93 1.813c-2.295.32-7.348.24-9.514-.16-9.802-1.846-17.935-8.007-22.267-16.863-3.978-8.15-4.107-18.082-.32-26.168.866-1.845.866-2.439 0-2.872-.53-.273-.883-.289-1.396-.048Z" fill="#fff"/><path d="M38.081 23.044c-.738.144-.93.593-.995 2.39-.048 1.316-.112 1.669-.304 1.669-.53 0-2.118.914-2.872 1.668-.433.45-1.01 1.252-1.283 1.781-.434.899-.466 1.091-.466 2.808 0 1.717.032 1.91.466 2.808.272.53.85 1.331 1.283 1.78 1.123 1.124 2.23 1.621 4.203 1.894 1.845.256 2.342.465 3.145 1.347 1.572 1.75 1.106 4.525-.963 5.68-1.684.963-3.866.45-4.877-1.14-.497-.801-.545-.914-.69-1.989-.064-.433-.24-.914-.417-1.09-.433-.434-1.476-.418-1.925.032-.305.304-.337.48-.273 1.588.08 1.38.53 2.487 1.444 3.594.626.754 2.214 1.813 2.936 1.957l.53.096.063 1.653c.065 1.813.241 2.214 1.06 2.374.609.113 1.443-.272 1.555-.721.048-.209.097-1.011.129-1.797l.032-1.428.674-.193c1.572-.465 3.048-1.78 3.866-3.45.4-.802.433-1.042.433-2.727 0-1.717-.032-1.91-.465-2.808-.273-.53-.85-1.331-1.284-1.78-1.123-1.108-2.326-1.653-4.155-1.846-1.94-.224-2.871-.706-3.593-1.909-1.508-2.487.256-5.615 3.16-5.615 1.107 0 1.99.4 2.744 1.235.625.69.85 1.268 1.026 2.47.048.45.225.867.417 1.044.45.4 1.46.385 1.91-.016.32-.29.352-.434.288-1.605-.08-1.412-.53-2.583-1.396-3.626-.61-.738-1.957-1.62-2.903-1.941l-.722-.24-.08-1.701c-.08-1.83-.209-2.086-.963-2.23a2.304 2.304 0 0 0-.738-.016Z" fill="#fff"/></svg>