<svg width="77" height="78" fill="none" xmlns="http://www.w3.org/2000/svg"><path d="M16.323.316c-.331.158-3.91 2.84-7.97 5.965-5.217 4.024-7.502 5.87-7.818 6.344-.857 1.278-.661 3.471.421 4.544.737.742 14.84 11.583 15.397 11.82 1.413.63 2.826.394 3.939-.663 1.037-.979 1.233-1.61 1.353-4.198l.09-2.146 1.278.426c3.428 1.168 5.894 3.282 7.278 6.217 1.263 2.699 1.187 1.878 1.278 15.07l.09 11.74.436.395c.526.458 1.203.41 1.639-.126.24-.316.255-1.152.255-12.64 0-12.56.06-14.202.602-16.632 1.368-6.138 5.638-10.983 12.133-13.792 2.782-1.199 5.458-1.909 9.909-2.619 1.022-.158 1.022-.19 1.113-3.503.075-2.746.105-3.046.39-3.456.241-.331.467-.458.903-.49.556-.046.947.238 7.878 5.571 4.015 3.093 7.383 5.728 7.488 5.87.286.41.21 1.057-.15 1.42-.617.584-14.013 10.841-14.585 11.173-.526.284-.601.3-.977.078-.812-.473-.947-1.057-.947-4.07 0-2.557-.016-2.73-.316-3.046-.286-.3-.436-.332-1.323-.253-3.338.316-7.022 2.21-9.322 4.782-1.805 2.035-2.917 4.323-3.474 7.164-.27 1.436-.3 2.177-.3 9.657v8.127l.345.33c.436.427 1.158.443 1.624.048l.361-.3.09-8.584c.076-8.316.09-8.6.421-9.752 1.173-4.087 3.97-6.959 8.135-8.379l1.278-.426.09 2.146c.12 2.588.316 3.22 1.353 4.198 1.113 1.057 2.526 1.293 3.94.662.556-.236 14.66-11.077 15.396-11.819 1.082-1.073 1.278-3.266.42-4.544-.315-.474-2.615-2.336-7.893-6.391-4.09-3.156-7.698-5.839-8.014-5.98-.3-.127-.977-.237-1.503-.237-1.594.015-2.617.725-3.293 2.288-.286.678-.346 1.12-.391 3.108l-.06 2.336h-.406c-.887 0-4.977.994-7.052 1.72-3.398 1.183-6.36 2.793-8.525 4.655l-.857.726-.782-.695c-1.94-1.751-5.187-3.534-8.54-4.686-2.075-.726-6.165-1.72-7.052-1.72h-.406l-.06-2.336c-.075-2.54-.3-3.408-1.143-4.355C19.57.032 17.616-.315 16.323.316Zm2.54 2.746c.286.41.316.71.391 3.456.09 3.314.09 3.345 1.113 3.503 5.398.868 8.645 1.815 11.818 3.487 1.398.726 3.82 2.383 4.255 2.888.256.3.24.331-.286.994-1.488 1.862-2.947 4.797-3.593 7.243-.226.82-.436 1.594-.466 1.72-.045.142-.226-.047-.496-.49-2.03-3.344-6.631-6.169-10.706-6.548-.887-.079-1.037-.047-1.323.253-.3.315-.316.489-.316 3.045 0 3.014-.135 3.598-.947 4.072-.376.22-.45.205-.977-.08-.571-.33-13.968-10.588-14.57-11.172-.375-.363-.45-1.01-.15-1.42.09-.142 3.458-2.777 7.473-5.87 6.931-5.333 7.322-5.617 7.878-5.57.436.031.662.158.902.489ZM43.402 52.421l-.391.316v21.918H33.99v-7.732c0-7.527-.016-7.748-.301-8.048-.421-.441-1.354-.426-1.744.016-.271.316-.286.726-.331 8.821l-.045 8.49.376.457.36.442h12.39l.36-.442.361-.442V64.714c0-8.095-.045-11.614-.165-11.882-.316-.742-1.203-.947-1.85-.41Z" fill="#fff"/></svg>