<svg width="56" height="56" fill="none" xmlns="http://www.w3.org/2000/svg"><path d="M25.942.084C15.022.987 5.78 7.82 1.822 17.954.551 21.242 0 24.24 0 28.01c0 3.77.55 6.769 1.822 10.055 5.676 14.52 22.009 21.68 36.441 15.972 7.131-2.815 12.951-8.627 15.77-15.75 5.27-13.275-.367-28.37-13.083-35.06C36.39.83 30.883-.335 25.941.084Zm5.033 5.878c3.54.51 6.436 1.624 9.333 3.574 10.303 6.913 13.03 20.594 6.161 30.806-5.44 8.078-15.363 11.73-24.63 9.06-6.332-1.82-11.706-6.572-14.341-12.687-1.14-2.657-1.652-4.896-1.77-7.855-.354-8.562 4.287-16.509 12.02-20.594 3.973-2.094 8.862-2.945 13.227-2.304Z" fill="#fff"/><path d="m22.717 11.631-.38.38v3.43h-2.373c-1.363 0-2.464.052-2.622.13-.655.354-.642.053-.642 12.373 0 12.254 0 12.15.63 12.49.17.091 1.192.144 2.634.144h2.373v3.43l.38.38c.328.327.485.38 1.062.38.576 0 .734-.053 1.061-.38l.38-.38v-3.43h2.753v1.754c0 1.715.013 1.754.341 2.095.288.275.472.34.996.34 1.285 0 1.547-.445 1.547-2.684v-1.505h1.285c1.455 0 2.307-.197 3.5-.825 1.061-.563 2.267-1.807 2.792-2.88 1.35-2.724.957-5.604-1.088-8.013l-.734-.85.734-.852c1.612-1.911 2.189-3.993 1.704-6.258-.538-2.526-2.386-4.516-4.903-5.25-.445-.13-1.206-.21-2.005-.21h-1.285v-1.57c0-2.213-.236-2.619-1.547-2.619-.524 0-.707.066-.996.34-.328.341-.34.38-.34 2.096v1.754H25.22v-3.43l-.38-.38c-.327-.327-.485-.38-1.061-.38-.577 0-.735.053-1.062.38Zm10.814 6.952c.983.38 1.822 1.152 2.32 2.16.38.786.407.93.354 1.86-.105 1.649-.917 2.84-2.45 3.56l-.735.34-6.712.04-6.724.04V18.32h6.62c6.331 0 6.646.013 7.327.262Zm.223 11.272c1.534.72 2.346 1.912 2.451 3.561.053.93.027 1.074-.354 1.86-.498 1.007-1.337 1.78-2.32 2.16-.681.248-.996.261-7.327.261h-6.62v-8.261l6.724.04 6.712.039.734.34Z" fill="#fff"/></svg>