<svg width="77" height="89" fill="none" xmlns="http://www.w3.org/2000/svg"><path d="M27.157.117c-1.99.4-3.562 1.888-5.306 5.016-1.421 2.574-2.369 3.986-3.07 4.577-.701.591-1.762.934-4.473 1.468-1.137.23-2.729.63-3.525.897-3.6 1.182-5.022 3.719-4.51 8.086.095.992.246 2.785.303 4.005.095 2.155.095 2.25-.417 3.185-.284.534-1.364 1.888-2.388 3.013C.815 33.588 0 35.075 0 37.288c0 2.097.815 3.585 3.752 6.789 1.062 1.144 2.142 2.517 2.426 3.032.493.916.512.973.38 3.338-.077 1.316-.21 3.051-.266 3.833-.209 2.06.019 3.948.606 5.093.436.877 1.839 2.345 2.237 2.345.075 0 .151.077.151.172 0 .095-1.838 3.376-4.074 7.285-2.256 3.891-4.132 7.286-4.189 7.496-.151.667.247 1.449.891 1.716.72.305.607.324 7.657-1.583 3.032-.82 5.514-1.469 5.552-1.45.02.02.777 2.785 1.668 6.123.89 3.337 1.762 6.293 1.952 6.56.38.534 1.44.744 2.066.4.19-.114 2.141-3.299 4.302-7.094 2.18-3.776 4.036-6.904 4.15-6.942 1.402-.343 2.88-.896 4.984-1.83 1.384-.63 2.957-1.221 3.469-1.336 1.194-.248 2.103 0 5.628 1.564 1.422.648 3.051 1.259 3.6 1.373l1.005.21 3.828 6.694c2.085 3.662 3.98 6.866 4.189 7.114.474.515 1.61.572 2.198.076.303-.248.777-1.793 2.066-6.618 1.497-5.626 1.724-6.293 2.047-6.236.19.038 2.88.763 5.95 1.602 3.07.839 5.875 1.526 6.198 1.545.852.019 1.573-.687 1.573-1.526 0-.477-1.024-2.403-4.208-7.915-3.032-5.245-4.131-7.304-3.942-7.362.152-.057.664-.476 1.156-.934 1.706-1.602 2.142-3.7 1.611-7.915-.587-4.73-.398-5.454 2.16-8.258C76.167 40.95 77 39.462 77 37.23c0-2.193-.72-3.49-3.942-7.075-2.9-3.242-2.994-3.567-2.464-8.316.512-4.5.209-6.255-1.326-7.972-1.061-1.163-2.672-1.85-6.178-2.593-4.89-1.05-5.193-1.26-7.448-5.34-.702-1.26-1.498-2.575-1.763-2.918-2.198-2.9-4.7-3.643-8.111-2.365-.834.305-2.54 1.03-3.79 1.583-2.01.915-2.407 1.03-3.506 1.01-1.1 0-1.555-.152-4.264-1.354C30.266.136 28.863-.227 27.158.117Zm2.426 3.452c.36.133 1.782.724 3.165 1.354C35.648 6.2 36.974 6.6 38.472 6.6c1.497 0 2.823-.4 5.723-1.678 3.032-1.354 3.62-1.564 4.472-1.564 1.365 0 2.18.877 4.227 4.5 2.615 4.673 3.638 5.436 8.642 6.466 3.506.725 4.662 1.145 5.344 1.907.796.916.89 1.888.493 5.378-.626 5.55-.209 7 3.127 10.642 2.16 2.346 3.127 3.7 3.316 4.635.209 1.01-.587 2.346-3.032 5.073-2.483 2.765-2.976 3.547-3.392 5.169-.38 1.43-.38 2.574 0 6.064.265 2.289.284 3.014.094 3.834-.379 1.754-1.175 2.174-5.799 3.166-5.117 1.087-6.235 1.907-8.812 6.484-1.554 2.784-2.52 4.024-3.412 4.386-.833.344-1.99.039-5.04-1.335-3.09-1.392-4.379-1.773-5.951-1.773-1.573 0-2.862.381-5.951 1.773-3.051 1.374-4.207 1.679-5.041 1.335-.891-.362-1.858-1.602-3.412-4.386-2.501-4.444-3.752-5.397-8.244-6.37-3.695-.801-4.605-1.087-5.382-1.66-1.137-.82-1.307-1.868-.91-5.473.399-3.452.399-4.596.039-6.026-.417-1.603-1.005-2.499-3.45-5.226-2.388-2.69-3.202-4.043-3.013-5.054.17-.897 1.156-2.25 3.336-4.616C9.779 28.61 10.196 27.16 9.57 21.61c-.398-3.47-.304-4.462.492-5.359.74-.858 1.497-1.125 4.909-1.83 5.477-1.126 6.405-1.793 9.077-6.561 1.479-2.613 2.199-3.643 2.938-4.12.663-.42 1.649-.476 2.596-.171ZM17.947 64.312c1.213.591 1.725 1.24 3.355 4.158 1.573 2.841 2.387 3.967 3.43 4.71.739.534.815.649.625.992-1.61 3.032-4.908 8.525-4.984 8.315-.057-.152-.645-2.364-1.327-4.94-.682-2.574-1.326-4.862-1.44-5.091-.133-.23-.493-.515-.796-.63-.493-.171-1.308 0-5.59 1.145-2.768.743-5.042 1.316-5.08 1.277-.038-.038 1.384-2.593 3.165-5.702l3.222-5.645 2.217.476c1.213.248 2.654.668 3.203.935Zm49.729 4.368c1.762 3.032 3.127 5.55 3.032 5.587-.076.02-2.369-.553-5.098-1.296-4.719-1.297-4.965-1.335-5.59-1.068-.759.305-.607-.096-2.313 6.408-.606 2.25-1.118 4.176-1.175 4.253-.056.076-1.231-1.831-2.634-4.272-1.402-2.422-2.52-4.444-2.502-4.463 1.403-.84 2.597-2.365 4.53-5.798 1.914-3.414 2.445-3.795 6.14-4.615 2.502-.553 2.028-.992 5.61 5.264Z" fill="#fff"/><path d="M33.828 13.848c-11.105 2.25-19.046 11.996-19.046 23.344 0 6.37 2.274 12.073 6.633 16.593 3.468 3.604 7.543 5.855 12.508 6.923 2.218.457 6.88.457 9.097 0 4.984-1.068 9.02-3.3 12.508-6.923 11.181-11.634 7.751-30.992-6.728-38.03-1.97-.953-3.544-1.487-5.837-1.926-2.464-.476-6.728-.476-9.135.02Zm8.396 3.166c7.088 1.278 13.266 6.656 15.635 13.637 2.824 8.239-.038 17.603-6.974 22.905-7.107 5.435-16.337 5.721-23.784.763-4.075-2.709-7.164-7.095-8.472-12.016-.455-1.659-.511-2.193-.511-5.092 0-2.88.056-3.452.492-5.073 2.54-9.497 11.295-15.963 20.904-15.467.625.038 1.838.19 2.71.343Z" fill="#fff"/><path d="m43.02 35.304-7.865 7.915-4.548-4.577c-4.264-4.31-4.587-4.578-5.23-4.578-1.024 0-1.593.534-1.593 1.507 0 .782.076.858 5.307 6.122l5.306 5.34h.853l.853.02 8.49-8.64c4.662-4.75 8.528-8.83 8.585-9.078.152-.534-.246-1.526-.701-1.755-.19-.114-.607-.19-.967-.19-.568 0-1.307.705-8.49 7.914Z" fill="#fff"/></svg>