<svg width="77" height="60" fill="none" xmlns="http://www.w3.org/2000/svg"><path d="M48.472.235c-1.489.531-2.572 1.533-3.128 2.869-.196.47-.256.5-1.023.5-1.925 0-3.594.653-4.797 1.867-.948.957-1.158 1.412-2.903 6.163-1.594 4.34-1.94 4.948-3.158 5.707-.692.44-.812.455-2.737.5l-2 .061v2.125l2.15-.06c2.03-.046 2.18-.076 3.143-.532 1.369-.652 2.407-1.715 3.038-3.126.286-.592 1.098-2.733 1.835-4.72.842-2.338 1.474-3.841 1.775-4.236.721-.94 1.85-1.502 3.173-1.593l1.083-.061.18.729c.376 1.487 1.279 2.61 2.722 3.354.722.364.993.425 2.181.425 1.233 0 1.459-.046 2.361-.501 1.128-.562 1.865-1.336 2.407-2.55.511-1.123.48-3.02-.06-4.174C53.9 1.206 52.322.144 50.337.022c-.812-.06-1.278 0-1.865.213Zm2.978 2.2c2.196 1.17 2.166 4.296-.06 5.434-.918.486-2.301.365-3.068-.258-.827-.683-1.249-1.487-1.249-2.458 0-2.323 2.362-3.78 4.377-2.717ZM23.371 2.952c-.947.045-1.278.121-1.474.334-.135.151-.51 1.047-.827 2.003L20.5 7.004l-1.685.653c-.947.35-2.27.956-2.947 1.32l-1.249.668-1.609-.743c-1.519-.699-2.361-.896-2.707-.623-.075.061-1.384 1.381-2.888 2.93-2.42 2.474-2.752 2.868-2.752 3.293 0 .289.346 1.17.827 2.156l.828 1.654-.662 1.336c-.557 1.123-1.053 2.474-1.58 4.28-.09.304-.42.486-1.91 1.063-.992.379-1.88.758-1.985.82-.135.09-.18 1.183-.18 4.34 0 3.87.03 4.265.27 4.569.181.212.933.577 2.061.971l1.79.638.42 1.214c.226.653.798 2.003 1.28 2.975l.841 1.776-.782 1.776c-.661 1.441-.782 1.836-.676 2.17.075.228 1.398 1.654 3.023 3.248 2.24 2.216 2.962 2.838 3.263 2.838.226 0 1.143-.379 2.076-.85l1.669-.85 1.594.76c.872.424 2.21.956 2.948 1.183.752.228 1.368.425 1.398.44.03.03.346.85.722 1.837.376 1.002.783 1.897.918 1.988.18.137.902.198 2.33.198 1.88 0 2.107-.03 2.377-.304.391-.395.391-1.123 0-1.518-.255-.258-.496-.303-1.835-.303h-1.549l-.586-1.64c-.587-1.67-1.038-2.307-1.625-2.307-.601 0-3.519-1.092-4.917-1.836-.783-.41-1.55-.744-1.73-.729-.18 0-1.023.365-1.895.805l-1.579.804L9.61 47.88l-2.196-2.14.722-1.609c.406-.88.737-1.776.737-2.003 0-.228-.195-.76-.45-1.154-.708-1.169-1.58-3.157-2.106-4.766l-.467-1.472-1.188-.456a41.939 41.939 0 0 0-1.805-.637c-.345-.106-.661-.273-.676-.349-.03-.091-.09-1.472-.12-3.081l-.076-2.9L3.7 26.66c.932-.349 1.804-.744 1.925-.88.12-.137.33-.683.466-1.215a22.073 22.073 0 0 1 1.805-4.674c.376-.714.676-1.382.676-1.488 0-.106-.376-.971-.827-1.912l-.827-1.73 2.076-2.126c1.127-1.153 2.075-2.14 2.09-2.17.015-.046.857.288 1.85.729l1.82.789.556-.304c2.617-1.381 3.76-1.912 5.038-2.322.813-.258 1.565-.577 1.685-.683.105-.122.466-1.002.782-1.958l.556-1.746h1.925c1.73 0 1.956-.03 2.226-.303.3-.304.391-.987.18-1.305-.33-.517-.781-.547-4.33-.41ZM57.195 11.315c-1.55.562-2.647 1.64-3.173 3.096l-.241.714-4.602.045c-5.279.076-5.49.107-6.843 1.366-1.053.972-1.549 1.989-1.73 3.582-.15 1.351-.36 1.867-.992 2.52-.933.926-.902.926-6.106.971l-4.783.046V25.628l5.159-.046 5.143-.045.752-.41c1.61-.85 2.662-2.49 2.858-4.371.135-1.397.3-1.837.947-2.474 1.008-.987 1.188-1.017 5.926-1.017h4.256l.27.759a4.918 4.918 0 0 0 2.061 2.55c1.098.667 1.82.834 3.113.759 1.384-.091 2.497-.638 3.414-1.655.978-1.093 1.339-2.17 1.264-3.703-.076-1.442-.437-2.353-1.309-3.294-1.278-1.412-3.624-2.003-5.384-1.366Zm2.948 2.155c.33.167.797.547 1.053.85 1.594 1.958.135 4.918-2.422 4.918-1.008 0-1.82-.455-2.451-1.336-.391-.576-.452-.789-.452-1.7 0-.91.06-1.123.452-1.685.872-1.244 2.541-1.715 3.82-1.047Z" fill="#fff"/><path d="M25.341 16.066c-3.82.41-7.655 2.732-9.82 5.934-.737 1.093-1.64 3.097-2.016 4.448-.466 1.745-.466 5.236 0 6.982.406 1.502 1.339 3.475 2.196 4.69.767 1.077 2.407 2.701 3.444 3.415 1.805 1.244 4.392 2.14 6.798 2.368.947.09 1.098.06 1.474-.228.27-.228.406-.47.406-.774 0-.76-.391-.987-1.85-1.093-1.594-.137-3.715-.79-5.068-1.579-1.203-.713-3.504-3.005-4.196-4.174-2.843-4.917-1.985-10.898 2.12-14.783 1.174-1.093 2.407-1.882 3.82-2.429 1.143-.44 2.933-.804 3.94-.82.753 0 1.234-.394 1.234-1.031 0-.88-.647-1.124-2.482-.926ZM70.836 24.915c-1.038.212-2.06.804-2.707 1.548-.482.561-1.204 1.927-1.204 2.292 0 .152-3.925.197-19.1.197h-19.1V30.925h19.1c15.175 0 19.1.046 19.1.182 0 .486.918 2.08 1.504 2.611 1.053.956 2.121 1.366 3.55 1.366 1.083 0 1.338-.06 2.21-.486 1.204-.607 2.076-1.548 2.527-2.747.436-1.184.361-3.096-.165-4.19-1.008-2.094-3.414-3.247-5.715-2.746Zm2.256 2.23c.857.396 1.158.669 1.549 1.428 1.248 2.413-1.309 5.282-3.775 4.234-2.12-.88-2.617-3.551-.963-5.115.888-.85 2.076-1.062 3.189-.546ZM28.725 35.25v.987h4.407c5.053 0 5.55.076 6.437 1.017.752.79.887 1.093 1.037 2.474.076.668.271 1.518.437 1.898.42.956 1.564 2.125 2.556 2.61l.843.425 4.662.046 4.677.045.256.744c.526 1.488 1.925 2.778 3.489 3.203.857.243 2.572.09 3.414-.273.977-.456 2-1.442 2.481-2.46.376-.743.421-1.016.421-2.291s-.045-1.548-.42-2.307c-.768-1.579-2.362-2.656-4.152-2.808-2.346-.198-4.481 1.153-5.248 3.324l-.256.728H49.48c-4.301 0-4.301 0-5.069-.38-1.112-.56-1.504-1.228-1.774-3.004-.27-1.791-.707-2.717-1.73-3.643-1.398-1.275-1.684-1.32-7.294-1.32h-4.888v.986Zm31.418 5.693c.33.167.797.546 1.053.85 1.594 1.958.135 4.918-2.422 4.918-1.008 0-1.82-.456-2.451-1.336-.391-.577-.452-.79-.452-1.7 0-.91.06-1.123.452-1.685.872-1.245 2.541-1.715 3.82-1.047ZM28.725 40.943v1.062h1.715c1.925 0 2.647.182 3.564.926.842.668 1.143 1.29 2.692 5.525.752 2.08 1.55 4.113 1.745 4.523 1.008 2.004 3.263 3.294 5.73 3.294h.932l.301.668c.406.956 1.369 1.927 2.376 2.458.782.395 1.023.44 2.301.44 1.339 0 1.49-.03 2.377-.515 1.113-.608 1.73-1.275 2.27-2.444.331-.698.392-1.047.392-2.125s-.06-1.427-.392-2.125c-.54-1.169-1.173-1.837-2.27-2.429-2.843-1.533-6.452-.015-7.295 3.066l-.24.88h-.857c-.467 0-1.083-.075-1.369-.181-.782-.258-1.76-.987-2.166-1.61-.21-.318-1.037-2.382-1.85-4.583-1.97-5.313-2.12-5.616-3.624-6.694-1.233-.895-2.391-1.199-4.542-1.199h-1.79v1.063ZM51.36 52.008c2.24 1.017 2.286 4.31.075 5.433-2.03 1.048-4.362-.394-4.362-2.686a2.995 2.995 0 0 1 4.287-2.747Z" fill="#fff"/></svg>