<svg width="77" height="89" viewBox="0 0 77 89" fill="none" xmlns="http://www.w3.org/2000/svg">
<path d="M27.1575 0.116742C25.1676 0.517247 23.5946 2.00484 21.8511 5.1326C20.4297 7.70727 19.4822 9.11858 18.7809 9.7098C18.0797 10.301 17.0185 10.6443 14.3084 11.1783C13.1713 11.4072 11.5794 11.8077 10.7834 12.0747C7.18262 13.2571 5.76126 15.7937 6.27295 20.1611C6.36771 21.1528 6.51932 22.9456 6.57617 24.1661C6.67093 26.3212 6.67093 26.4166 6.15924 27.3511C5.87497 27.8851 4.79473 29.2392 3.77135 30.3644C0.814915 33.5876 0 35.0751 0 37.2875C0 39.3853 0.814915 40.8729 3.7524 44.077C4.81368 45.2213 5.89392 46.5944 6.17819 47.1094C6.67093 48.0248 6.68988 48.082 6.55722 50.4469C6.48142 51.7629 6.34876 53.4984 6.2919 54.2803C6.08344 56.3401 6.31085 58.2282 6.89835 59.3725C7.33424 60.2498 8.73665 61.7183 9.13463 61.7183C9.21044 61.7183 9.28624 61.7946 9.28624 61.8899C9.28624 61.9853 7.44794 65.2656 5.21167 69.1753C2.95644 73.066 1.08024 76.4607 1.02338 76.6705C0.87177 77.338 1.26975 78.1199 1.9141 78.387C2.63426 78.6921 2.52055 78.7112 9.57051 76.804C12.6028 75.9839 15.0854 75.3355 15.1233 75.3546C15.1423 75.3736 15.9003 78.139 16.791 81.4766C17.6818 84.8141 18.5535 87.7702 18.743 88.0372C19.1221 88.5712 20.1834 88.781 20.8088 88.4377C20.9983 88.3233 22.9503 85.1383 25.1108 81.3431C27.2902 77.5669 29.1474 74.4391 29.2611 74.401C30.6635 74.0577 32.1418 73.5046 34.2454 72.5701C35.6288 71.9407 37.2018 71.3495 37.7135 71.2351C38.9075 70.9871 39.8171 71.2351 43.3421 72.7989C44.7635 73.4474 46.3933 74.0577 46.9429 74.1721L47.9473 74.3819L51.7755 81.0761C53.8602 84.7378 55.7554 87.9419 55.9638 88.1898C56.4376 88.7047 57.5747 88.762 58.1622 88.2661C58.4654 88.0182 58.9392 86.4733 60.2279 81.6482C61.7251 76.0221 61.9525 75.3546 62.2747 75.4118C62.4642 75.4499 65.1553 76.1746 68.2254 77.0138C71.2956 77.8529 74.1004 78.5395 74.4226 78.5586C75.2754 78.5777 75.9956 77.872 75.9956 77.0329C75.9956 76.5561 74.9722 74.6298 71.7883 69.1181C68.7561 63.8734 67.6569 61.8137 67.8464 61.7564C67.998 61.6992 68.5097 61.2796 69.0025 60.8219C70.7081 59.2199 71.144 57.122 70.6133 52.9072C70.0258 48.1774 70.2154 47.4527 72.7738 44.6491C76.1661 40.9492 77 39.4616 77 37.2302C77 35.037 76.2798 33.7401 73.0581 30.1547C70.1585 26.9125 70.0637 26.5882 70.5944 21.8394C71.1061 17.3385 70.8029 15.5839 69.2678 13.8674C68.2065 12.7041 66.5956 12.0175 63.0896 11.2737C58.2001 10.2247 57.8969 10.0149 55.6416 5.93361C54.9404 4.67488 54.1445 3.35893 53.8792 3.01564C51.6808 0.116742 49.1792 -0.627054 45.7679 0.650749C44.934 0.955896 43.2284 1.68062 41.9776 2.2337C39.9687 3.14914 39.5708 3.26357 38.4716 3.2445C37.3724 3.2445 36.9175 3.09193 34.2075 1.89041C30.2656 0.135814 28.8632 -0.226549 27.1575 0.116742ZM29.5833 3.56872C29.9434 3.70222 31.3648 4.29344 32.7482 4.92281C35.6478 6.20061 36.9744 6.60112 38.4716 6.60112C39.9687 6.60112 41.2953 6.20061 44.1949 4.92281C47.2272 3.56872 47.8147 3.35893 48.6675 3.35893C50.032 3.35893 50.8469 4.23623 52.8937 7.85985C55.509 12.5324 56.5324 13.2953 61.5356 14.3252C65.0416 15.0499 66.1976 15.4695 66.8799 16.2323C67.6759 17.1478 67.7706 18.1204 67.3726 21.6105C66.7472 27.1604 67.1642 28.6098 70.4996 32.2525C72.6601 34.5984 73.6266 35.9524 73.8161 36.887C74.0246 37.8978 73.2286 39.2328 70.7839 41.96C68.3013 44.7254 67.8085 45.5074 67.3916 47.1285C67.0125 48.5588 67.0125 49.7031 67.3916 53.1932C67.6569 55.4819 67.6759 56.2066 67.4863 57.0267C67.1073 58.7813 66.3113 59.2008 61.6872 60.1926C56.5703 61.2796 55.4521 62.0997 52.8747 66.6769C51.3207 69.4614 50.3542 70.7011 49.4634 71.0634C48.6296 71.4067 47.4735 71.1016 44.4223 69.7284C41.3332 68.3362 40.0445 67.9547 38.4716 67.9547C36.8986 67.9547 35.6099 68.3362 32.5208 69.7284C29.4696 71.1016 28.3136 71.4067 27.4797 71.0634C26.589 70.7011 25.6224 69.4614 24.0684 66.6769C21.5668 62.2332 20.316 61.2796 15.8245 60.307C12.129 59.506 11.2193 59.2199 10.4423 58.6478C9.30519 57.8277 9.13463 56.7787 9.53261 53.1742C9.93059 49.7222 9.93059 48.5779 9.57051 47.1475C9.15358 45.5455 8.56608 44.6491 6.12134 41.9219C3.73345 39.2328 2.91853 37.8787 3.10805 36.8679C3.27861 35.9715 4.26409 34.6174 6.44351 32.2525C9.77898 28.6098 10.1959 27.1604 9.57051 21.6105C9.17253 18.1395 9.26729 17.1478 10.0633 16.2514C10.8024 15.3932 11.5604 15.1262 14.9717 14.4205C20.4487 13.2953 21.3773 12.6278 24.0495 7.85985C25.5277 5.24703 26.2478 4.21715 26.987 3.74036C27.6503 3.32079 28.6357 3.26357 29.5833 3.56872ZM17.9471 64.312C19.16 64.9033 19.6717 65.5517 21.3015 68.4697C22.8745 71.3114 23.6894 72.4366 24.7317 73.1804C25.4708 73.7144 25.5466 73.8288 25.3571 74.1721C23.7462 77.2045 20.4487 82.6972 20.3729 82.4874C20.316 82.3348 19.7285 80.1225 19.0463 77.5478C18.364 74.9731 17.7197 72.6845 17.606 72.4557C17.4733 72.2268 17.1132 71.9407 16.81 71.8263C16.3173 71.6546 15.5023 71.8263 11.2193 72.9706C8.45237 73.7144 6.17819 74.2865 6.14029 74.2484C6.10239 74.2103 7.52375 71.6546 9.30519 68.546L12.527 62.9007L14.7443 63.3775C15.9572 63.6255 17.3975 64.045 17.9471 64.312ZM67.6759 68.6795C69.4383 71.7119 70.8029 74.2293 70.7081 74.2675C70.6323 74.2865 68.3392 73.7144 65.6101 72.9706C60.8912 71.6737 60.6448 71.6356 60.0194 71.9026C59.2614 72.2077 59.413 71.8072 57.7074 78.3107C57.1009 80.5611 56.5892 82.4874 56.5324 82.5637C56.4755 82.6399 55.3005 80.7328 53.8981 78.2916C52.4957 75.8695 51.3776 73.8479 51.3965 73.8288C52.7989 72.9897 53.9929 71.4639 55.9259 68.031C57.84 64.6172 58.3707 64.2358 62.0662 63.4157C64.5678 62.8626 64.094 62.4239 67.6759 68.6795Z" fill="white"></path>
<path d="M33.8284 13.8484C22.7228 16.0989 14.7821 25.8445 14.7821 37.1922C14.7821 43.5621 17.0563 49.2646 21.4151 53.7846C24.8833 57.3891 28.9578 59.6396 33.9231 60.7076C36.1405 61.1653 40.8025 61.1653 43.0199 60.7076C48.0041 59.6396 52.0408 57.4082 55.5279 53.7846C66.7093 42.1508 63.279 22.7931 48.8001 15.7556C46.8291 14.802 45.2561 14.268 42.963 13.8294C40.4993 13.3526 36.2352 13.3526 33.8284 13.8484ZM42.2239 17.0143C49.3118 18.2921 55.49 23.6704 57.8589 30.6506C60.6827 38.8896 57.821 48.2538 50.8847 53.5557C43.7779 58.9911 34.5485 59.2772 27.1006 54.3186C23.026 51.6104 19.9369 47.2239 18.6293 42.3034C18.1744 40.6442 18.1176 40.1102 18.1176 37.2113C18.1176 34.3314 18.1744 33.7593 18.6103 32.1382C21.1498 22.6405 29.9054 16.1752 39.5138 16.671C40.1392 16.7092 41.3521 16.8618 42.2239 17.0143Z" fill="white"></path>
<path d="M43.02 35.3041L35.1551 43.2189L30.6067 38.6416C26.3426 34.3314 26.0205 34.0644 25.3761 34.0644C24.3527 34.0644 23.7842 34.5984 23.7842 35.5711C23.7842 36.353 23.86 36.4293 29.0906 41.6931L34.397 47.0332H35.2498L36.1027 47.0523L44.5929 38.4128C49.255 33.6639 53.1211 29.5826 53.178 29.3347C53.3296 28.8007 52.9316 27.8089 52.4768 27.5801C52.2873 27.4656 51.8703 27.3894 51.5102 27.3894C50.9417 27.3894 50.2026 28.095 43.02 35.3041Z" fill="white"></path>
</svg>
