<svg width="77" height="77" viewBox="0 0 77 77" fill="none" xmlns="http://www.w3.org/2000/svg">
<path d="M33.493 0.228618C31.3754 0.517414 29.5947 0.88643 27.6215 1.46402C25.6643 2.02557 22.5039 3.26097 22.1029 3.62998C21.7018 3.98296 21.7339 4.97769 22.151 5.50715C22.5681 6.05265 23.2419 6.05265 24.413 5.53924C31.9048 2.2181 41.3538 1.76886 49.3589 4.33593C55.07 6.16496 59.9951 9.24544 64.2623 13.6576C69.6526 19.241 73.0054 26.156 74.0322 33.8893C74.4172 36.7131 74.3049 41.9435 73.8236 44.5908C72.8771 49.6768 71.1124 54.0568 68.289 58.2444C66.396 61.036 66.3478 61.1323 66.4762 61.6778C66.5564 61.9666 67.2462 62.8009 68.2248 63.7956L69.8451 65.4482H65.0805H60.3159V60.6831V55.918L61.8881 57.4582C62.7543 58.3085 63.6527 59.0626 63.8773 59.1107C64.7917 59.3354 65.7543 58.3727 65.5297 57.4582C65.4655 57.1854 64.3265 55.918 62.5939 54.1691C59.8025 51.3935 59.7384 51.3293 59.0646 51.3293C58.5994 51.3293 58.2946 51.4256 58.07 51.6502C57.7652 51.955 57.7491 52.1797 57.7491 59.6723C57.7491 67.1649 57.7652 67.3895 58.07 67.6944C58.3748 67.9992 58.5994 68.0153 66.0912 68.0153C73.583 68.0153 73.8076 67.9992 74.1124 67.6944C74.337 67.4698 74.4332 67.1649 74.4332 66.6996C74.4332 66.0579 74.353 65.9616 72.0429 63.6192L69.6526 61.1965L70.3424 60.2338C71.4172 58.7257 73.0536 55.7575 73.9199 53.7359C76.0695 48.7141 77 44.1255 77 38.494C77 33.8091 76.4866 30.5361 75.0589 26.2683C70.3905 12.2136 58.1823 2.16996 43.4232 0.228618C41.0971 -0.076221 35.7068 -0.076221 33.493 0.228618Z" fill="white"></path>
<path d="M34.263 5.29858C30.6856 5.76386 25.3755 7.36828 24.3488 8.2828C23.9157 8.6839 23.9638 9.69468 24.4611 10.176C24.9905 10.7215 25.3595 10.6894 27.2044 9.95139C33.0278 7.62499 39.8137 7.19179 46.0382 8.73203C48.1558 9.26149 49.6477 9.80699 51.8936 10.898C61.0539 15.3262 67.4227 24.0382 68.8986 34.1781C69.2194 36.4082 69.2194 40.5958 68.8826 42.8099C68.4334 45.8743 67.6152 48.682 66.3318 51.4416C65.642 52.9337 65.6099 53.5915 66.1874 54.0408C66.6687 54.4098 67.5029 54.474 67.904 54.1691C68.305 53.8803 69.5563 51.1207 70.2622 48.9548C71.4173 45.409 71.8664 42.5211 71.8664 38.494C71.8664 33.0069 70.8558 28.5626 68.5136 23.7815C66.765 20.2518 65.0645 17.8451 62.2731 15.0214C56.931 9.59842 50.0809 6.22914 42.5088 5.28254C40.9206 5.09001 35.8512 5.10605 34.263 5.29858Z" fill="white"></path>
<path d="M2.99637 9.16524C2.53114 9.53426 2.37071 10.2081 2.62739 10.7857C2.75573 11.0745 3.86266 12.2939 5.08188 13.5132L7.32782 15.7273L6.33319 17.2194C3.47764 21.4872 1.40817 26.7015 0.477707 31.9159C0.0285199 34.4188 -0.147947 40.1305 0.140817 42.6815C1.85735 57.7149 12.0122 70.3256 26.2258 75.0426C30.5412 76.4866 33.7978 77 38.4982 77C41.819 77 44.2414 76.7433 47.129 76.1015C50.1771 75.4277 54.3802 73.9035 54.9096 73.2778C55.5513 72.5237 54.9898 71.0637 54.0273 71.0637C53.7706 71.0637 52.7439 71.3845 51.7653 71.7696C47.3215 73.5505 43.4393 74.2725 38.4661 74.2725C29.0332 74.2885 20.4345 70.8069 13.6646 64.2609C7.56845 58.3567 3.92683 51.0405 2.88407 42.5853C2.64343 40.7081 2.64343 36.2638 2.88407 34.3225C3.58993 28.4824 5.65941 23.0435 9.04435 18.15C10.5203 16.0001 10.6165 15.8236 10.4882 15.2781C10.424 15.0214 9.70209 14.1389 8.77163 13.1763L7.15135 11.5398H11.9159H16.6805V16.3049V21.07L15.1084 19.5298C14.2421 18.6794 13.3598 17.9414 13.1352 17.8772C12.1887 17.6366 11.2742 18.503 11.4507 19.4496C11.5309 19.8507 12.1726 20.5887 14.3223 22.7226C15.8303 24.2468 17.2741 25.5624 17.5147 25.6426C18.0441 25.8351 18.8623 25.5945 19.0869 25.1773C19.1832 24.9848 19.2473 21.9204 19.2473 17.2515C19.2473 9.82305 19.2313 9.59844 18.9265 9.2936C18.6217 8.98876 18.3971 8.97271 10.9374 8.97271C5.04979 8.97271 3.20492 9.02085 2.99637 9.16524Z" fill="white"></path>
<path d="M34.7924 18.2141C32.2577 18.6634 29.4182 19.7865 27.3166 21.1502C25.8889 22.0647 25.6643 22.3375 25.6643 23.0916C25.6643 24.5195 26.8835 24.7922 28.4717 23.7173C31.5518 21.6476 34.7764 20.6529 38.4982 20.6689C41.5623 20.6689 44.113 21.2786 46.76 22.6584C55.2946 27.1026 58.7598 37.6436 54.5567 46.2754C52.2626 50.9603 48.1557 54.3617 43.0543 55.7736C41.5783 56.1907 41.2415 56.2228 38.4982 56.2228C35.755 56.2228 35.4181 56.1907 33.9261 55.7736C27.7017 54.0568 22.9531 49.3077 21.2205 43.0505C20.8034 41.5745 20.7713 41.2375 20.7713 38.494C20.7713 35.7504 20.8034 35.4135 21.2205 33.9374C21.7339 32.0923 22.7285 29.9264 23.8034 28.3059C24.6536 27.0384 24.7338 26.4769 24.1402 25.8993C23.5627 25.3057 22.7285 25.3538 22.1029 26.0116C20.8676 27.3433 19.1029 31.0013 18.4292 33.6807C17.9479 35.6221 17.8195 39.9059 18.1885 42.0237C18.6698 44.7993 19.8088 47.6231 21.4451 50.11C22.4077 51.5539 25.4076 54.5542 26.8675 55.5329C29.3219 57.1533 32.1935 58.3085 34.8726 58.7899C36.7175 59.1107 40.2308 59.1107 42.1077 58.7738C48.4124 57.6828 54.0433 53.4792 56.9309 47.7033C58.3908 44.7993 59.0485 41.9274 59.0485 38.494C59.0485 34.1781 57.9416 30.52 55.5513 26.878C54.5406 25.3377 51.5567 22.3856 49.9685 21.3428C47.5301 19.7544 44.851 18.6794 42.0757 18.1981C40.3752 17.8933 36.4608 17.9093 34.7924 18.2141Z" fill="white"></path>
<path d="M9.17271 22.8028C8.69143 23.0435 7.6968 25.1613 6.79843 27.8246C3.97497 36.2799 4.6327 45.5695 8.57914 53.4472C10.2475 56.7523 12.0603 59.2712 14.7234 61.9666C17.5629 64.8546 20.3222 66.828 23.9317 68.5768C28.6482 70.8711 33.0759 71.8659 38.4982 71.8659C42.5249 71.8659 45.3163 71.4327 48.9418 70.2615C51.5247 69.4272 52.6476 68.8656 52.8402 68.3201C53.0166 67.8227 52.8722 67.1649 52.5193 66.828C52.0059 66.2985 51.5407 66.3467 49.5996 67.1008C47.2895 67.9832 45.0917 68.5608 42.6693 68.9137C40.3752 69.2346 35.3218 69.1544 33.1561 68.7533C23.3542 66.9082 15.2207 60.7473 10.8892 51.8909C6.91073 43.7404 6.78239 33.8091 10.5684 25.7228C11.4347 23.8778 11.4347 23.2841 10.5684 22.8509C10.039 22.5782 9.68606 22.5621 9.17271 22.8028Z" fill="white"></path>
<path d="M38.0811 23.0435C37.3432 23.1879 37.1506 23.6371 37.0865 25.434C37.0384 26.7497 36.9742 27.1026 36.7817 27.1026C36.2523 27.1026 34.6641 28.0172 33.9101 28.7712C33.4769 29.2205 32.8994 30.0227 32.6267 30.5521C32.1935 31.4506 32.1615 31.6431 32.1615 33.3599C32.1615 35.0766 32.1935 35.2691 32.6267 36.1676C32.8994 36.6971 33.4769 37.4993 33.9101 37.9485C35.0331 39.0716 36.14 39.569 38.1132 39.8417C39.9581 40.0984 40.4554 40.307 41.2575 41.1894C42.8297 42.9382 42.3644 45.7139 40.295 46.8691C38.6105 47.8317 36.4287 47.3183 35.4181 45.7299C34.9208 44.9277 34.8726 44.8154 34.7282 43.7404C34.6641 43.3073 34.4876 42.8259 34.3111 42.6494C33.878 42.2162 32.8352 42.2323 32.3861 42.6815C32.0812 42.9864 32.0492 43.1629 32.1133 44.2699C32.1935 45.6497 32.6427 46.7567 33.5571 47.8638C34.1828 48.6179 35.771 49.6768 36.4929 49.8212L37.0223 49.9175L37.0865 51.57C37.1506 53.383 37.3271 53.7841 38.1453 53.9445C38.7549 54.0568 39.5891 53.6718 39.7014 53.2226C39.7495 53.014 39.7976 52.2118 39.8297 51.4256L39.8618 49.9977L40.5356 49.8051C42.1078 49.3399 43.5837 48.0242 44.4018 46.3556C44.8029 45.5534 44.835 45.3128 44.835 43.6281C44.835 41.9114 44.8029 41.7189 44.3697 40.8204C44.097 40.2909 43.5195 39.4887 43.0863 39.0395C41.9634 37.9325 40.7602 37.3869 38.9314 37.1944C36.9902 36.9698 36.0598 36.4885 35.3379 35.2852C33.8299 32.7983 35.5945 29.6697 38.4982 29.6697C39.6051 29.6697 40.4875 30.0708 41.2415 30.9051C41.8671 31.595 42.0917 32.1726 42.2682 33.3759C42.3163 33.8251 42.4928 34.2423 42.6853 34.4188C43.1345 34.8199 44.1451 34.8038 44.5943 34.4027C44.9152 34.1139 44.9473 33.9695 44.8831 32.7983C44.8029 31.3864 44.3537 30.2152 43.4874 29.1723C42.8778 28.4343 41.5302 27.5519 40.5837 27.231L39.8618 26.9903L39.7816 25.2896C39.7014 23.4606 39.5731 23.2039 38.8191 23.0595C38.5945 23.0114 38.2576 23.0114 38.0811 23.0435Z" fill="white"></path>
</svg>
