<svg width="77" height="78" viewBox="0 0 77 78" fill="none" xmlns="http://www.w3.org/2000/svg">
<path d="M16.3225 0.316347C15.9917 0.474146 12.4132 3.15672 8.35364 6.28113C3.13629 10.305 0.850882 12.1512 0.535135 12.6246C-0.321894 13.9028 -0.126431 16.0962 0.956131 17.1692C1.69287 17.9109 15.7963 28.7516 16.3526 28.9883C17.7659 29.6195 19.1793 29.3828 20.2919 28.3256C21.3294 27.3472 21.5248 26.716 21.6451 24.1281L21.7353 21.9821L23.0133 22.4081C26.4415 23.5759 28.9073 25.6904 30.2906 28.6254C31.5536 31.3238 31.4784 30.5032 31.5686 43.6952L31.6588 55.4354L32.0948 55.8299C32.6211 56.2875 33.2977 56.2402 33.7337 55.7036C33.9743 55.388 33.9893 54.5517 33.9893 43.064C33.9893 30.5032 34.0495 28.8621 34.5907 26.432C35.959 20.2936 40.2291 15.4492 46.7245 12.6404C49.5061 11.4411 52.1824 10.7311 56.6329 10.021C57.6553 9.86316 57.6553 9.8316 57.7456 6.51783C57.8207 3.77214 57.8508 3.47232 58.1365 3.06204C58.377 2.73066 58.6026 2.60443 59.0386 2.57287C59.5949 2.52553 59.9859 2.80956 66.9173 8.14316C70.9318 11.236 74.2997 13.8712 74.405 14.0133C74.6907 14.4235 74.6155 15.0705 74.2546 15.4334C73.6382 16.0173 60.2415 26.2742 59.6701 26.6056C59.1439 26.8896 59.0687 26.9054 58.6928 26.6845C57.8809 26.2111 57.7456 25.6272 57.7456 22.6133C57.7456 20.0569 57.7305 19.8834 57.4298 19.5678C57.1441 19.268 56.9938 19.2364 56.1067 19.3153C52.7688 19.6309 49.0851 21.5245 46.7846 24.0966C44.9803 26.1322 43.8677 28.4203 43.3114 31.2606C43.0407 32.6966 43.0107 33.4383 43.0107 40.9179V49.0445L43.3565 49.3759C43.7925 49.802 44.5142 49.8178 44.9803 49.4233L45.3412 49.1234L45.4314 40.5392C45.5066 32.2232 45.5216 31.9392 45.8524 30.7872C47.0252 26.7003 49.8218 23.8283 53.9867 22.4081L55.2647 21.9821L55.3549 24.1281C55.4752 26.716 55.6706 27.3472 56.7081 28.3256C57.8207 29.3828 59.2341 29.6195 60.6474 28.9883C61.2037 28.7516 75.3071 17.9109 76.0439 17.1692C77.1264 16.0962 77.3219 13.9028 76.4649 12.6246C76.1491 12.1512 73.8487 10.2892 68.5712 6.23379C64.4815 3.07782 60.873 0.395246 60.5572 0.253228C60.2565 0.126989 59.5799 0.0165299 59.0536 0.0165299C57.4599 0.0323098 56.4375 0.742403 55.7609 2.30461C55.4752 2.98314 55.415 3.42498 55.3699 5.41324L55.3098 7.74866H54.9038C54.0167 7.74866 49.927 8.74279 47.8521 9.46866C44.4541 10.6522 41.4921 12.2617 39.327 14.1237L38.4699 14.8496L37.6881 14.1553C35.7485 12.4037 32.5008 10.6206 29.1479 9.46866C27.0729 8.74279 22.9833 7.74866 22.0962 7.74866H21.6902L21.6301 5.41324C21.5549 2.87268 21.3294 2.00479 20.4874 1.058C19.5702 0.0323098 17.6156 -0.314847 16.3225 0.316347ZM18.8635 3.06204C19.1492 3.47232 19.1793 3.77214 19.2544 6.51783C19.3447 9.8316 19.3447 9.86316 20.3671 10.021C25.7649 10.8888 29.0125 11.8356 32.1851 13.5083C33.5834 14.2342 36.0041 15.8911 36.4401 16.396C36.6957 16.6958 36.6807 16.7274 36.1544 17.3901C34.6659 19.2522 33.2075 22.1872 32.5609 24.6331C32.3354 25.4537 32.1249 26.2269 32.0948 26.3531C32.0497 26.4951 31.8693 26.3058 31.5987 25.8639C29.5689 22.5186 24.968 19.694 20.8933 19.3153C20.0062 19.2364 19.8559 19.268 19.5702 19.5678C19.2695 19.8834 19.2544 20.0569 19.2544 22.6133C19.2544 25.6272 19.1191 26.2111 18.3072 26.6845C17.9313 26.9054 17.8561 26.8896 17.3299 26.6056C16.7585 26.2742 3.36183 16.0173 2.7604 15.4334C2.38451 15.0705 2.30933 14.4235 2.61005 14.0133C2.70026 13.8712 6.06823 11.236 10.0827 8.14316C17.0141 2.80956 17.4051 2.52553 17.9614 2.57287C18.3974 2.60443 18.6229 2.73066 18.8635 3.06204Z" fill="white"></path>
<path d="M43.4016 52.4214L43.0107 52.737V63.704V74.6552H38.5H33.9893V66.9231C33.9893 59.3961 33.9743 59.1752 33.6886 58.8753C33.2676 58.4335 32.3354 58.4493 31.9445 58.8911C31.6739 59.2067 31.6588 59.617 31.6137 67.7121L31.5686 76.2016L31.9445 76.6592L32.3053 77.1011H38.5H44.6947L45.0555 76.6592L45.4164 76.2174V64.7139C45.4164 56.6188 45.3713 53.0999 45.251 52.8317C44.9352 52.09 44.0481 51.8849 43.4016 52.4214Z" fill="white"></path>
</svg>
